<svg width="1728" height="964" viewBox="0 0 1728 964" fill="none" xmlns="http://www.w3.org/2000/svg">
<path d="M1623.09 914.195C1473.2 1064.08 1298.3 1160.51 1136.73 1195.28C975.152 1230.06 827.046 1203.15 730.497 1106.61C633.948 1010.06 607.043 861.95 641.819 700.37C676.592 538.802 773.021 363.902 922.908 214.015C1072.79 64.1282 1247.69 -32.3007 1409.26 -67.074C1570.84 -101.85 1718.95 -74.9446 1815.5 21.6047C1912.05 118.154 1938.95 266.259 1904.18 427.84C1869.4 589.408 1772.97 764.308 1623.09 914.195Z" stroke="black" stroke-width="2"/>
<path d="M1204.09 914.195C1054.2 1064.08 879.305 1160.51 717.737 1195.28C556.156 1230.06 408.051 1203.15 311.502 1106.61C214.952 1010.06 188.047 861.95 222.823 700.37C257.596 538.802 354.025 363.902 503.912 214.015C653.799 64.1282 828.698 -32.3007 990.267 -67.074C1151.85 -101.85 1299.95 -74.9446 1396.5 21.6047C1493.05 118.154 1519.96 266.259 1485.18 427.84C1450.41 589.408 1353.98 764.308 1204.09 914.195Z" stroke="black" stroke-width="2"/>
<path d="M785.096 914.195C635.209 1064.08 460.309 1160.51 298.741 1195.28C137.16 1230.06 -10.945 1203.15 -107.494 1106.61C-204.044 1010.06 -230.949 861.95 -196.173 700.37C-161.4 538.802 -64.9707 363.902 84.9161 214.015C234.803 64.1282 409.703 -32.3007 571.271 -67.074C732.851 -101.85 880.957 -74.9446 977.506 21.6047C1074.06 118.154 1100.96 266.259 1066.18 427.84C1031.41 589.408 934.983 764.308 785.096 914.195Z" stroke="black" stroke-width="2"/>
<circle cx="1207" cy="898" r="50" fill="#95DCE5"/>
<circle cx="247" cy="627" r="50" fill="#BABD70"/>
<circle cx="1484" cy="177" r="50" fill="#E9CA8F"/>
<line x1="371.072" y1="823.714" x2="437.109" y2="889.751" stroke="#2C7773" stroke-width="2"/>
<line x1="379.169" y1="897.379" x2="425.865" y2="816.5" stroke="#2C7773" stroke-width="2"/>
<line x1="357" y1="855.653" x2="450.391" y2="855.653" stroke="#2C7773" stroke-width="2"/>
<circle cx="361.646" cy="106.506" r="10.8663" fill="#F7C41A"/>
<circle cx="361.646" cy="52.6919" r="5.69189" fill="#F7C41A"/>
<line x1="361.628" y1="53.2094" x2="361.628" y2="111.163" stroke="#F7C41A"/>
<circle cx="5.69189" cy="5.69189" r="5.69189" transform="matrix(1 0 0 -1 355.954 152.559)" fill="#F7C41A"/>
<line y1="-0.5" x2="57.9538" y2="-0.5" transform="matrix(0 -1 -1 0 361.128 146.349)" stroke="#F7C41A"/>
<circle cx="303.767" cy="104.511" r="5.69189" transform="rotate(-90.7609 303.767 104.511)" fill="#F7C41A"/>
<line x1="304.285" y1="104.522" x2="362.233" y2="103.753" stroke="#F7C41A"/>
<circle cx="385.396" cy="66.1591" r="5.69189" transform="rotate(30 385.396 66.1591)" fill="#F7C41A"/>
<line x1="385.122" y1="66.5985" x2="352.523" y2="123.062" stroke="#F7C41A"/>
<circle cx="5.69189" cy="5.69189" r="5.69189" transform="matrix(0.866025 0.5 0.5 -0.866025 322.837 163.129)" fill="#F7C41A"/>
<line y1="-0.5" x2="65.1981" y2="-0.5" transform="matrix(0.5 -0.866025 -0.866025 -0.5 330.423 160.339)" stroke="#F7C41A"/>
<circle cx="312.963" cy="79.5561" r="5.69189" transform="rotate(-61.4833 312.963 79.5561)" fill="#F7C41A"/>
<line x1="313.409" y1="79.8186" x2="370.697" y2="110.945" stroke="#F7C41A"/>
<circle cx="5.69189" cy="5.69189" r="5.69189" transform="matrix(0.477416 -0.878678 -0.878678 -0.477416 411.52 139.583)" fill="#F7C41A"/>
<line y1="-0.5" x2="65.1981" y2="-0.5" transform="matrix(-0.878678 -0.477416 -0.477416 0.878678 408.534 132.072)" stroke="#F7C41A"/>
<circle cx="309.466" cy="124.017" r="5.69189" transform="rotate(-109.522 309.466 124.017)" fill="#F7C41A"/>
<line x1="309.959" y1="123.861" x2="371.409" y2="102.074" stroke="#F7C41A"/>
<circle cx="5.69189" cy="5.69189" r="5.69189" transform="matrix(-0.334166 -0.942514 -0.942514 0.334166 420 90.8663)" fill="#F7C41A"/>
<line y1="-0.5" x2="65.1981" y2="-0.5" transform="matrix(-0.942514 0.334166 0.334166 0.942514 412.419 88.0643)" stroke="#F7C41A"/>
<circle cx="1612.97" cy="633.825" r="6.49806" fill="#AF4EC8"/>
<path d="M1613 545L1614.3 621.5H1611.7L1613 545Z" fill="#AF4EC8"/>
<path d="M1613 723L1614.3 646.5H1611.7L1613 723Z" fill="#AF4EC8"/>
<path d="M1524 634L1600.5 632.701V635.299L1524 634Z" fill="#AF4EC8"/>
<path d="M1702 634L1625.5 632.701V635.299L1702 634Z" fill="#AF4EC8"/>
<path d="M1550.07 571.068L1605.08 624.243L1603.24 626.08L1550.07 571.068Z" fill="#AF4EC8"/>
<path d="M1675.93 696.933L1622.76 641.92L1620.92 643.757L1675.93 696.933Z" fill="#AF4EC8"/>
<path d="M1675.93 571.067L1622.76 626.08L1620.92 624.243L1675.93 571.067Z" fill="#AF4EC8"/>
<path d="M1550.07 696.932L1605.08 643.757L1603.24 641.92L1550.07 696.932Z" fill="#AF4EC8"/>
<circle cx="141.975" cy="366.825" r="6.49806" fill="#B9787C"/>
<path d="M142 278L143.299 354.5H140.701L142 278Z" fill="#B9787C"/>
<path d="M142 456L143.299 379.5H140.701L142 456Z" fill="#B9787C"/>
<path d="M53 367L129.5 365.701V368.299L53 367Z" fill="#B9787C"/>
<path d="M231 367L154.5 365.701V368.299L231 367Z" fill="#B9787C"/>
<path d="M79.0675 304.068L134.08 357.243L132.243 359.08L79.0675 304.068Z" fill="#B9787C"/>
<path d="M204.933 429.933L151.757 374.92L149.92 376.757L204.933 429.933Z" fill="#B9787C"/>
<path d="M204.933 304.067L151.757 359.08L149.92 357.243L204.933 304.067Z" fill="#B9787C"/>
<path d="M79.0675 429.932L134.08 376.757L132.243 374.92L79.0675 429.932Z" fill="#B9787C"/>
</svg>
