<svg width="1728" height="964" viewBox="0 0 1728 964" fill="none" xmlns="http://www.w3.org/2000/svg">
<circle cx="1560.47" cy="562.825" r="6.49806" fill="#AF4EC8"/>
<path d="M1560.5 474L1561.8 550.5H1559.2L1560.5 474Z" fill="#AF4EC8"/>
<path d="M1560.5 652L1561.8 575.5H1559.2L1560.5 652Z" fill="#AF4EC8"/>
<path d="M1471.5 563L1548 561.701V564.299L1471.5 563Z" fill="#AF4EC8"/>
<path d="M1649.5 563L1573 561.701V564.299L1649.5 563Z" fill="#AF4EC8"/>
<path d="M1497.57 500.067L1552.58 553.242L1550.74 555.079L1497.57 500.067Z" fill="#AF4EC8"/>
<path d="M1623.43 625.933L1570.26 570.92L1568.42 572.757L1623.43 625.933Z" fill="#AF4EC8"/>
<path d="M1623.43 500.067L1570.26 555.08L1568.42 553.243L1623.43 500.067Z" fill="#AF4EC8"/>
<path d="M1497.57 625.933L1552.58 572.758L1550.74 570.921L1497.57 625.933Z" fill="#AF4EC8"/>
<circle cx="281" cy="166" r="50" fill="#95DCE5"/>
<ellipse cx="173.602" cy="712.617" rx="10.6882" ry="10.7039" fill="#BABD70"/>
<ellipse cx="173.602" cy="659.607" rx="5.59858" ry="5.6068" fill="#BABD70"/>
<line x1="173.594" y1="660.116" x2="173.594" y2="717.204" stroke="#BABD70"/>
<ellipse cx="5.59858" cy="5.6068" rx="5.59858" ry="5.6068" transform="matrix(1 0 0 -1 168.004 757.98)" fill="#BABD70"/>
<line y1="-0.5" x2="57.0874" y2="-0.5" transform="matrix(0 -1 -1 0 173.094 751.864)" stroke="#BABD70"/>
<ellipse cx="5.6068" cy="5.59858" rx="5.6068" ry="5.59858" transform="matrix(-0.0132601 -0.999912 0.999912 -0.013299 111.149 716.333)" fill="#BABD70"/>
<line y1="-0.5" x2="57.0028" y2="-0.5" transform="matrix(0.999912 -0.013299 0.0132601 0.999912 117.188 711.155)" stroke="#BABD70"/>
<ellipse cx="5.60064" cy="5.60474" rx="5.60064" ry="5.60474" transform="matrix(0.865707 0.50055 -0.49945 0.866343 194.914 665.214)" fill="#BABD70"/>
<line y1="-0.5" x2="64.1998" y2="-0.5" transform="matrix(-0.49945 0.866343 -0.865707 -0.50055 196.268 673.06)" stroke="#BABD70"/>
<ellipse cx="5.60064" cy="5.60474" rx="5.60064" ry="5.60474" transform="matrix(0.865707 0.50055 0.49945 -0.866343 135.43 768.394)" fill="#BABD70"/>
<line y1="-0.5" x2="64.1998" y2="-0.5" transform="matrix(0.49945 -0.866343 -0.865707 -0.50055 142.892 765.645)" stroke="#BABD70"/>
<ellipse cx="5.60493" cy="5.60045" rx="5.60493" ry="5.60045" transform="matrix(0.476875 -0.878971 0.878384 0.477956 118.125 688.319)" fill="#BABD70"/>
<line y1="-0.5" x2="64.1507" y2="-0.5" transform="matrix(0.878384 0.477956 -0.476875 0.878971 125.922 686.761)" stroke="#BABD70"/>
<ellipse cx="5.60493" cy="5.60045" rx="5.60493" ry="5.60045" transform="matrix(0.476875 -0.878971 -0.878384 -0.477956 222.659 745.199)" fill="#BABD70"/>
<line y1="-0.5" x2="64.1507" y2="-0.5" transform="matrix(-0.878384 -0.477956 -0.476875 0.878971 219.722 737.8)" stroke="#BABD70"/>
<ellipse cx="5.60588" cy="5.5995" rx="5.60588" ry="5.5995" transform="matrix(-0.333731 -0.942668 0.94236 -0.334602 118.872 737.023)" fill="#BABD70"/>
<line y1="-0.5" x2="64.1397" y2="-0.5" transform="matrix(0.94236 -0.334602 0.333731 0.942668 122.928 730.176)" stroke="#BABD70"/>
<ellipse cx="5.60588" cy="5.5995" rx="5.60588" ry="5.5995" transform="matrix(-0.333731 -0.942668 -0.94236 0.334602 231 697.21)" fill="#BABD70"/>
<line y1="-0.5" x2="64.1397" y2="-0.5" transform="matrix(-0.94236 0.334602 0.333731 0.942668 223.543 694.451)" stroke="#BABD70"/>
</svg>
